<svg width="174" height="25" viewBox="0 0 174 25" fill="none" xmlns="http://www.w3.org/2000/svg">
<path d="M0.00106888 23.9844V0.323835H7.99574C9.84422 0.323835 11.3615 0.639617 12.5476 1.27118C13.7337 1.89504 14.6118 2.75382 15.1817 3.8475C15.7517 4.94118 16.0366 6.18506 16.0366 7.57912C16.0366 8.97318 15.7517 10.2094 15.1817 11.2876C14.6118 12.3659 13.7376 13.2131 12.5592 13.8293C11.3808 14.4377 9.87503 14.742 8.04196 14.742H1.57228V12.1541H7.94953C9.21266 12.1541 10.2293 11.9693 10.9995 11.5996C11.7774 11.2299 12.3397 10.7061 12.6863 10.0284C13.0406 9.34288 13.2177 8.52646 13.2177 7.57912C13.2177 6.63177 13.0406 5.80381 12.6863 5.09522C12.332 4.38664 11.7659 3.8398 10.988 3.4547C10.2101 3.0619 9.18185 2.86549 7.90332 2.86549H2.86621V23.9844H0.00106888ZM11.1382 13.3556L16.9609 23.9844H13.6336L7.90332 13.3556H11.1382ZM20.8109 23.9844V0.323835H35.0904V2.86549H23.676V10.8602H34.351V13.4018H23.676V21.4427H35.2753V23.9844H20.8109ZM55.7818 0.323835H58.647V15.9897C58.647 17.6071 58.2657 19.0512 57.5032 20.3221C56.7484 21.5852 55.6817 22.5826 54.303 23.3143C52.9244 24.0383 51.307 24.4003 49.4508 24.4003C47.5946 24.4003 45.9772 24.0383 44.5985 23.3143C43.2199 22.5826 42.1493 21.5852 41.3868 20.3221C40.632 19.0512 40.2546 17.6071 40.2546 15.9897V0.323835H43.1197V15.7586C43.1197 16.9139 43.3739 17.9422 43.8822 18.8433C44.3906 19.7367 45.1146 20.4415 46.0542 20.9575C47.0016 21.4658 48.1337 21.72 49.4508 21.72C50.7678 21.72 51.9 21.4658 52.8474 20.9575C53.7947 20.4415 54.5187 19.7367 55.0193 18.8433C55.5277 17.9422 55.7818 16.9139 55.7818 15.7586V0.323835ZM64.3686 23.9844V0.323835H72.3633C74.2117 0.323835 75.729 0.639617 76.9151 1.27118C78.1013 1.89504 78.9793 2.75382 79.5492 3.8475C80.1192 4.94118 80.4042 6.18506 80.4042 7.57912C80.4042 8.97318 80.1192 10.2094 79.5492 11.2876C78.9793 12.3659 78.1051 13.2131 76.9267 13.8293C75.7483 14.4377 74.2426 14.742 72.4095 14.742H65.9398V12.1541H72.3171C73.5802 12.1541 74.5968 11.9693 75.367 11.5996C76.1449 11.2299 76.7072 10.7061 77.0538 10.0284C77.4081 9.34288 77.5852 8.52646 77.5852 7.57912C77.5852 6.63177 77.4081 5.80381 77.0538 5.09522C76.6995 4.38664 76.1334 3.8398 75.3555 3.4547C74.5776 3.0619 73.5494 2.86549 72.2708 2.86549H67.2337V23.9844H64.3686ZM75.5057 13.3556L81.3284 23.9844H78.0011L72.2708 13.3556H75.5057ZM85.1784 23.9844V0.323835H93.4504C95.0986 0.323835 96.458 0.608809 97.5286 1.17876C98.5992 1.741 99.3963 2.49965 99.9201 3.4547C100.444 4.40204 100.706 5.45337 100.706 6.60867C100.706 7.62533 100.525 8.46485 100.163 9.12722C99.8084 9.78959 99.3386 10.3133 98.7532 10.6984C98.1756 11.0835 97.5478 11.3685 96.8701 11.5533V11.7844C97.5941 11.8306 98.3219 12.0848 99.0536 12.5469C99.7853 13.009 100.398 13.6714 100.891 14.534C101.383 15.3966 101.63 16.4518 101.63 17.6995C101.63 18.8857 101.36 19.9524 100.821 20.8997C100.282 21.8471 99.431 22.598 98.268 23.1526C97.105 23.7071 95.5915 23.9844 93.7277 23.9844H85.1784ZM88.0436 21.4427H93.7277C95.5992 21.4427 96.9278 21.0807 97.7134 20.3567C98.5067 19.625 98.9034 18.7393 98.9034 17.6995C98.9034 16.8985 98.6993 16.1591 98.2911 15.4814C97.8829 14.7959 97.3014 14.249 96.5466 13.8408C95.7918 13.4249 94.8984 13.217 93.8663 13.217H88.0436V21.4427ZM88.0436 10.7215H93.358C94.2206 10.7215 94.9985 10.5521 95.6917 10.2132C96.3925 9.87431 96.9471 9.39679 97.3553 8.78063C97.7712 8.16447 97.9792 7.44048 97.9792 6.60867C97.9792 5.5689 97.6172 4.68702 96.8932 3.96303C96.1692 3.23134 95.0216 2.86549 93.4504 2.86549H88.0436V10.7215Z" fill="black"/>
<path d="M126.405 8.60734H121.345C121.253 7.95266 121.064 7.37116 120.779 6.86283C120.494 6.3468 120.128 5.90778 119.681 5.54579C119.235 5.1838 118.719 4.90652 118.133 4.71397C117.556 4.52143 116.928 4.42515 116.25 4.42515C115.026 4.42515 113.959 4.72938 113.05 5.33784C112.141 5.93859 111.436 6.81662 110.936 7.97192C110.435 9.11952 110.185 10.5136 110.185 12.1541C110.185 13.8408 110.435 15.258 110.936 16.4056C111.444 17.5532 112.153 18.4197 113.062 19.005C113.97 19.5904 115.022 19.8831 116.216 19.8831C116.886 19.8831 117.506 19.7945 118.076 19.6173C118.653 19.4402 119.165 19.1822 119.612 18.8433C120.059 18.4967 120.429 18.0769 120.721 17.584C121.022 17.0911 121.23 16.5288 121.345 15.8973L126.405 15.9204C126.274 17.0064 125.947 18.0538 125.423 19.0628C124.907 20.0641 124.21 20.9613 123.332 21.7546C122.462 22.5403 121.422 23.1641 120.213 23.6262C119.011 24.0806 117.652 24.3079 116.135 24.3079C114.024 24.3079 112.137 23.8303 110.474 22.8753C108.818 21.9202 107.508 20.5377 106.546 18.7278C105.591 16.9178 105.113 14.7266 105.113 12.1541C105.113 9.57394 105.598 7.37887 106.569 5.5689C107.539 3.75893 108.856 2.38027 110.52 1.43292C112.184 0.477875 114.055 0.000351079 116.135 0.000351079C117.506 0.000351079 118.776 0.192901 119.947 0.578001C121.126 0.963101 122.169 1.52535 123.078 2.26474C123.987 2.99643 124.726 3.89371 125.296 4.95659C125.874 6.01946 126.244 7.23638 126.405 8.60734ZM133.626 23.9844H128.265L136.433 0.323835H142.88L151.036 23.9844H145.676L139.749 5.73064H139.564L133.626 23.9844ZM133.291 14.6842H145.953V18.5891H133.291V14.6842ZM162.272 23.9844H153.884V0.323835H162.341C164.721 0.323835 166.77 0.797508 168.487 1.74485C170.205 2.6845 171.526 4.0362 172.45 5.79996C173.382 7.56371 173.848 9.67406 173.848 12.131C173.848 14.5956 173.382 16.7137 172.45 18.4851C171.526 20.2566 170.197 21.616 168.464 22.5634C166.739 23.5107 164.675 23.9844 162.272 23.9844ZM158.887 19.6982H162.064C163.542 19.6982 164.786 19.4363 165.795 18.9126C166.812 18.3812 167.574 17.5609 168.083 16.4518C168.599 15.335 168.857 13.8948 168.857 12.131C168.857 10.3826 168.599 8.95392 168.083 7.84484C167.574 6.73575 166.816 5.91934 165.807 5.3956C164.798 4.87187 163.554 4.61 162.075 4.61H158.887V19.6982Z" fill="#1D4ED8"/>
</svg>
